<?xml version="1.0" encoding="utf-8"?>
<!-- Generator: Adobe Illustrator 22.1.0, SVG Export Plug-In . SVG Version: 6.00 Build 0)  -->
<svg version="1.1" id="Layer_1" xmlns="http://www.w3.org/2000/svg" xmlns:xlink="http://www.w3.org/1999/xlink" x="0px" y="0px"
	 viewBox="0 0 32 32" style="enable-background:new 0 0 32 32;" xml:space="preserve">
<style type="text/css">
	.st0{fill:#3B79F0;}
</style>
<path class="st0" d="M21.9,26.5l-5,5c0,0.1-0.1,0.1-0.1,0.2C16.5,31.9,16.2,32,16,32s-0.5-0.1-0.7-0.3l-5.2-5.2
	c-0.4-0.4-0.4-1,0-1.4c0.4-0.4,1-0.4,1.4,0l4.5,4.5l4.5-4.5c0.4-0.4,1-0.4,1.4,0C22.3,25.5,22.3,26.1,21.9,26.5z M21.9,5.5l-5.2-5.2
	c-0.4-0.4-1-0.4-1.4,0c-0.1,0.1-0.1,0.1-0.1,0.2l-5,5c-0.4,0.4-0.4,1,0,1.4c0.2,0.2,0.4,0.3,0.7,0.3s0.5-0.1,0.7-0.3L16,2.4l4.5,4.5
	c0.2,0.2,0.4,0.3,0.7,0.3s0.5-0.1,0.7-0.3C22.3,6.5,22.3,5.9,21.9,5.5z M19.7,16.2c0,2-1.6,3.7-3.7,3.7s-3.7-1.7-3.7-3.7
	c0-2.1,1.7-3.7,3.7-3.7S19.7,14.2,19.7,16.2z M17.8,16.2c0-1-0.8-1.8-1.8-1.8s-1.8,0.8-1.8,1.8c0,1,0.8,1.8,1.8,1.8
	S17.8,17.2,17.8,16.2z"/>
</svg>
