<?xml version="1.0" encoding="utf-8"?>
<!-- Generator: Adobe Illustrator 22.1.0, SVG Export Plug-In . SVG Version: 6.00 Build 0)  -->
<svg version="1.1" id="Layer_1" xmlns="http://www.w3.org/2000/svg" xmlns:xlink="http://www.w3.org/1999/xlink" x="0px" y="0px"
	 viewBox="0 0 40 40" style="enable-background:new 0 0 40 40;" xml:space="preserve">
<style type="text/css">
	.color{fill:#9349e8;}
	.shadow{fill:#8043e1;}
	.st1{fill:#ffffff;}
</style>
<path class="color" d="M20,40c-1.1,0-2.1-0.3-3-0.8l-12-7c-1.9-1.1-3-3.1-3-5.2V13c0-2.2,1.2-4.2,3-5.2l12-7c1.8-1.1,4.2-1.1,6,0l12,7
	c1.9,1.1,3,3.1,3,5.2v14c0,2.2-1.2,4.2-3,5.2l-12,7C22.1,39.7,21.1,40,20,40z M20,1.4c-0.8,0-1.6,0.2-2.3,0.6l-12,7
	c-1.4,0.8-2.3,2.4-2.3,4v14c0,1.7,0.9,3.2,2.3,4l12,7c1.4,0.8,3.2,0.8,4.6,0l12-7c1.4-0.8,2.3-2.4,2.3-4V13c0-1.7-0.9-3.2-2.3-4
	l-12-7C21.6,1.6,20.8,1.4,20,1.4z"/>
<path class="color" d="M16.9,5.1L8.7,9.9c-1.9,1.1-3,3.1-3,5.3v9.7c0,2.2,1.2,4.2,3,5.3l8.3,4.8c1.9,1.1,4.2,1.1,6.1,0l8.3-4.8
	c1.9-1.1,3-3.1,3-5.3v-9.7c0-2.2-1.2-4.2-3-5.3l-8.3-4.8C21.2,4,18.8,4,16.9,5.1z"/>
<ellipse id="_x3C_Ellipse-color_x3E_" class="shadow" cx="21" cy="21" rx="10.1" ry="10.2"/>
<ellipse id="_x3C_Ellipse-white_x3E_" class="st1" cx="20" cy="20" rx="10.1" ry="10.2"/>
<g id="_x3C_gears_x3E_">
	<path class="color" d="M13.9,18.1c0.1,0.3,0.2,0.5,0.3,0.7l-0.4,0.5c-0.1,0.2-0.1,0.4,0,0.5l0.6,0.6c0.1,0.1,0.4,0.2,0.5,0l0.5-0.4
		c0.2,0.1,0.5,0.2,0.8,0.3l0.1,0.6c0,0.2,0.2,0.3,0.4,0.3h0.9c0.2,0,0.4-0.1,0.4-0.3l0.1-0.6c0.3-0.1,0.6-0.2,0.8-0.3l0.4,0.4
		c0.2,0.1,0.4,0.1,0.5,0l0.6-0.6c0.1-0.1,0.1-0.4,0-0.5l-0.3-0.4c0.1-0.3,0.3-0.5,0.3-0.8L21,18c0.2,0,0.3-0.2,0.3-0.4v-0.9
		c0-0.2-0.1-0.4-0.3-0.4l-0.5-0.1c-0.1-0.3-0.2-0.5-0.3-0.8l0.3-0.4c0.1-0.2,0.1-0.4,0-0.5l-0.6-0.6c-0.1-0.1-0.4-0.2-0.5,0
		l-0.4,0.3c-0.3-0.2-0.5-0.3-0.8-0.3L18,13.3c0-0.2-0.2-0.3-0.4-0.3h-0.9c-0.2,0-0.4,0.1-0.4,0.3l-0.1,0.5c-0.3,0.1-0.6,0.2-0.8,0.4
		L15,13.9c-0.2-0.1-0.4-0.1-0.5,0l-0.6,0.6c-0.1,0.1-0.1,0.4,0,0.5l0.3,0.4c-0.1,0.3-0.2,0.5-0.3,0.8l-0.6,0.1
		c-0.2,0-0.3,0.2-0.3,0.4v0.9c0,0.2,0.1,0.4,0.3,0.4L13.9,18.1z M17.2,15.7c0.8,0,1.5,0.7,1.5,1.5c0,0.8-0.7,1.5-1.5,1.5
		c-0.8,0-1.5-0.7-1.5-1.5C15.7,16.3,16.4,15.7,17.2,15.7L17.2,15.7z M17.2,15.7"/>
	<path class="color" d="M26,18.3l-0.5-0.4c-0.1-0.1-0.4-0.1-0.5,0l-0.3,0.2c-0.2-0.1-0.5-0.2-0.7-0.2L24,17.6c0-0.2-0.2-0.3-0.4-0.3L23,17.3
		c-0.2,0-0.3,0.2-0.3,0.4l0,0.4c-0.2,0.1-0.5,0.2-0.7,0.4l-0.3-0.2c-0.2-0.1-0.4-0.1-0.5,0.1l-0.4,0.5c-0.1,0.1-0.1,0.4,0,0.5
		l0.3,0.3c-0.1,0.2-0.2,0.4-0.2,0.7l-0.4,0.1c-0.2,0-0.3,0.2-0.3,0.4l0.1,0.6c0,0.2,0.2,0.3,0.4,0.3l0.4,0c0.1,0.2,0.2,0.4,0.3,0.6
		l-0.2,0.4C21,22.8,21,23,21.1,23.2l0.5,0.4c0.1,0.1,0.4,0.1,0.5,0l0.3-0.3c0.2,0.1,0.4,0.2,0.6,0.2l0.1,0.4c0,0.2,0.2,0.3,0.4,0.3
		l0.6-0.1c0.2,0,0.3-0.2,0.3-0.4l0-0.4c0.2-0.1,0.4-0.2,0.6-0.3l0.3,0.2c0.2,0.1,0.4,0.1,0.5-0.1l0.4-0.5c0.1-0.1,0.1-0.4,0-0.5
		l-0.3-0.3c0.1-0.2,0.2-0.4,0.2-0.7l0.4-0.1c0.2,0,0.3-0.2,0.3-0.4l-0.1-0.6c0-0.2-0.2-0.3-0.4-0.3l-0.4,0c-0.1-0.2-0.2-0.4-0.3-0.6
		l0.2-0.3C26.2,18.7,26.2,18.5,26,18.3L26,18.3z M23.7,21.9c-0.7,0.1-1.3-0.4-1.3-1.1c-0.1-0.7,0.4-1.3,1.1-1.3
		c0.7-0.1,1.3,0.4,1.3,1.1C24.9,21.3,24.4,21.9,23.7,21.9L23.7,21.9z M23.7,21.9"/>
	<path class="color" d="M16.1,23.6c-0.2,0-0.3,0.2-0.3,0.4l0,0.4c0,0.2,0.1,0.4,0.3,0.4l0.3,0c0,0.2,0.1,0.3,0.2,0.5l-0.2,0.2
		c-0.1,0.2-0.1,0.4,0,0.5l0.3,0.3c0.1,0.1,0.3,0.2,0.5,0l0.2-0.2c0.2,0.1,0.3,0.2,0.5,0.2l0,0.3c0,0.2,0.2,0.3,0.4,0.3l0.4,0
		c0.2,0,0.4-0.1,0.4-0.3l0-0.3c0.2,0,0.4-0.1,0.5-0.2l0.2,0.2c0.1,0.1,0.4,0.1,0.5,0l0.3-0.3c0.1-0.1,0.2-0.4,0-0.5l-0.2-0.2
		c0.1-0.2,0.2-0.3,0.2-0.5l0.2,0c0.2,0,0.3-0.2,0.3-0.4l0-0.4c0-0.2-0.1-0.4-0.3-0.4l-0.2,0c0-0.2-0.1-0.4-0.2-0.5l0.2-0.2
		c0.1-0.2,0.1-0.4,0-0.5l-0.3-0.3c-0.1-0.1-0.3-0.2-0.5,0l-0.2,0.1c-0.2-0.1-0.4-0.2-0.5-0.2l0-0.2c0-0.2-0.2-0.3-0.4-0.3l-0.4,0
		c-0.2,0-0.4,0.1-0.4,0.3l0,0.2c-0.2,0.1-0.4,0.1-0.6,0.2l-0.2-0.2c-0.1-0.1-0.4-0.1-0.5,0l-0.3,0.3c-0.1,0.1-0.2,0.4,0,0.5l0.2,0.2
		c-0.1,0.2-0.2,0.3-0.2,0.5L16.1,23.6z M18.5,23.2c0.5,0,1,0.5,1,1c0,0.6-0.5,1-1,1c-0.5,0-1-0.5-1-1C17.5,23.6,18,23.2,18.5,23.2
		L18.5,23.2z M18.5,23.2"/>
</g>
</svg>
