<?xml version="1.0" encoding="utf-8"?>
<!-- Generator: Adobe Illustrator 22.1.0, SVG Export Plug-In . SVG Version: 6.00 Build 0)  -->
<svg version="1.1" id="Layer_1" xmlns="http://www.w3.org/2000/svg" xmlns:xlink="http://www.w3.org/1999/xlink" x="0px" y="0px"
	 viewBox="0 0 40 40" style="enable-background:new 0 0 40 40;" xml:space="preserve">
<style type="text/css">
    .shadow{fill:#208fd2;}
    .st1{fill:#fff;}
    .color{fill:#28a4e3;}
</style>
<path class="color" d="M20,40c-1.1,0-2.1-0.3-3-0.8l-12-7c-1.9-1.1-3-3.1-3-5.2V13c0-2.2,1.2-4.2,3-5.2l12-7c1.8-1.1,4.2-1.1,6,0l12,7
    c1.9,1.1,3,3.1,3,5.2v14c0,2.2-1.2,4.2-3,5.2l-12,7C22.1,39.7,21.1,40,20,40z M20,1.4c-0.8,0-1.6,0.2-2.3,0.6l-12,7
    c-1.4,0.8-2.3,2.4-2.3,4v14c0,1.7,0.9,3.2,2.3,4l12,7c1.4,0.8,3.2,0.8,4.6,0l12-7c1.4-0.8,2.3-2.4,2.3-4V13c0-1.7-0.9-3.2-2.3-4
    l-12-7C21.6,1.6,20.8,1.4,20,1.4z"/>
<path class="color" d="M16.9,5.1L8.7,9.9c-1.9,1.1-3,3.1-3,5.3v9.7c0,2.2,1.2,4.2,3,5.3l8.3,4.8c1.9,1.1,4.2,1.1,6.1,0l8.3-4.8
    c1.9-1.1,3-3.1,3-5.3v-9.7c0-2.2-1.2-4.2-3-5.3l-8.3-4.8C21.2,4,18.8,4,16.9,5.1z"/>
<ellipse id="_x3C_Ellipse-color_x3E_" class="shadow" cx="21" cy="21" rx="10.1" ry="10.2"/>
<ellipse id="_x3C_Ellipse-white_x3E_" class="st1" cx="20" cy="20" rx="10.1" ry="10.2"/>
</svg>
