<?xml version="1.0" encoding="utf-8"?>
<!-- Generator: Adobe Illustrator 22.1.0, SVG Export Plug-In . SVG Version: 6.00 Build 0)  -->
<svg version="1.1" id="Layer_1" xmlns="http://www.w3.org/2000/svg" xmlns:xlink="http://www.w3.org/1999/xlink" x="0px" y="0px"
	 viewBox="0 0 40 40" style="enable-background:new 0 0 40 40;" xml:space="preserve">
<g>
	<path d="M2.6,14.6c0.2,0.7,0.5,1.4,0.9,2.1L2.4,18c-0.3,0.4-0.3,1.1,0.1,1.5l1.8,1.8c0.4,0.4,1,0.4,1.4,0.1l1.3-1.1
		c0.7,0.4,1.4,0.7,2.1,0.9L9.4,23c0.1,0.6,0.5,1,1.1,1h2.6c0.5,0,1-0.4,1.1-1l0.2-1.7c0.8-0.2,1.6-0.5,2.3-0.9l1.3,1
		c0.4,0.3,1.1,0.3,1.4-0.1l1.8-1.8c0.4-0.4,0.4-1,0.1-1.5l-1-1.3c0.4-0.7,0.7-1.5,0.9-2.3l1.5-0.2c0.5-0.1,1-0.5,1-1.1v-2.6
		c0-0.6-0.4-1-1-1.1l-1.5-0.2c-0.2-0.8-0.5-1.6-0.9-2.3l0.9-1.2c0.3-0.4,0.3-1.1-0.1-1.5l-1.8-1.8c-0.4-0.4-1-0.4-1.4-0.1l-1.1,0.9
		c-0.7-0.4-1.5-0.8-2.4-1L14.3,1c-0.1-0.6-0.5-1-1.1-1h-2.6c-0.5,0-1,0.4-1.1,1L9.4,2.5C8.5,2.7,7.7,3,7,3.5L5.8,2.5
		C5.3,2.2,4.7,2.2,4.3,2.6L2.5,4.5c-0.4,0.4-0.4,1-0.1,1.5l1,1.3C3,7.9,2.7,8.7,2.5,9.5L1,9.6c-0.5,0.1-1,0.5-1,1.1v2.6
		c0,0.6,0.4,1,1,1.1L2.6,14.6z M11.9,7.6c2.3,0,4.2,1.9,4.2,4.3c0,2.4-1.9,4.3-4.2,4.3s-4.2-1.9-4.2-4.3C7.7,9.5,9.6,7.6,11.9,7.6
		L11.9,7.6z M11.9,7.6"/>
	<path d="M37.2,15.2l-1.4-1.2c-0.4-0.4-1-0.3-1.4,0l-0.7,0.7c-0.6-0.3-1.3-0.5-2-0.7l-0.2-1c-0.1-0.5-0.6-0.9-1.1-0.9l-1.8,0.2
		c-0.5,0-1,0.5-1,1l0,1.1c-0.7,0.2-1.3,0.6-1.9,1l-0.9-0.6c-0.5-0.3-1.1-0.2-1.4,0.2l-1.1,1.4c-0.4,0.4-0.3,1,0,1.4l0.8,0.8
		c-0.3,0.6-0.5,1.3-0.6,1.9L21.4,21c-0.5,0.1-0.9,0.6-0.9,1.2l0.2,1.8c0,0.5,0.5,1,1,1l1.2,0c0.2,0.6,0.5,1.1,0.9,1.6l-0.7,1
		c-0.3,0.5-0.2,1.1,0.2,1.4l1.4,1.2c0.4,0.4,1,0.3,1.4,0l0.9-0.8c0.6,0.3,1.2,0.5,1.8,0.6l0.2,1.2c0.1,0.5,0.6,0.9,1.1,0.9l1.8-0.2
		c0.5,0,1-0.5,1-1l0-1.2c0.6-0.2,1.3-0.5,1.8-0.9l1,0.7c0.5,0.3,1.1,0.2,1.4-0.2l1.1-1.4c0.4-0.4,0.3-1,0-1.4l-0.8-0.8
		c0.3-0.6,0.5-1.3,0.6-1.9l1.1-0.2c0.5-0.1,0.9-0.6,0.9-1.2l-0.2-1.8c0-0.5-0.5-1-1-1l-1.1,0c-0.2-0.6-0.5-1.2-0.9-1.8l0.6-0.9
		C37.7,16.2,37.6,15.6,37.2,15.2L37.2,15.2z M30.6,25.5c-1.9,0.2-3.6-1.3-3.7-3.2c-0.2-1.9,1.3-3.6,3.2-3.8c1.9-0.2,3.6,1.3,3.7,3.2
		C33.9,23.7,32.5,25.4,30.6,25.5L30.6,25.5z M30.6,25.5"/>
	<path d="M8.8,30.3c-0.5,0.1-1,0.5-1,1.1l0,1.1c0,0.6,0.4,1,0.9,1.1l0.8,0.1c0.1,0.5,0.3,1,0.6,1.4l-0.5,0.6c-0.3,0.4-0.3,1,0.1,1.4
		l0.8,0.8c0.4,0.4,1,0.4,1.4,0.1l0.6-0.5c0.5,0.3,0.9,0.5,1.4,0.6L14,39c0.1,0.5,0.5,1,1.1,1l1.1,0c0.5,0,1-0.4,1.1-0.9l0.1-0.8
		c0.5-0.1,1.1-0.3,1.5-0.6l0.6,0.5c0.4,0.3,1,0.3,1.4-0.1l0.8-0.8c0.4-0.4,0.4-1,0.1-1.4l-0.5-0.6c0.3-0.5,0.5-1,0.7-1.5l0.7-0.1
		c0.5-0.1,1-0.5,1-1.1l0-1.1c0-0.6-0.4-1-0.9-1.1L22,30.3c-0.1-0.5-0.3-1-0.6-1.5l0.4-0.5c0.3-0.4,0.3-1-0.1-1.4L21,26.1
		c-0.4-0.4-1-0.4-1.4-0.1l-0.5,0.4c-0.5-0.3-1-0.5-1.6-0.7L17.5,25c-0.1-0.5-0.5-1-1.1-1l-1.1,0c-0.5,0-1,0.4-1.1,0.9l-0.1,0.7
		c-0.6,0.1-1.1,0.4-1.6,0.7L12,25.9c-0.4-0.3-1-0.3-1.4,0.1l-0.8,0.8c-0.4,0.4-0.4,1-0.1,1.4l0.5,0.6c-0.3,0.5-0.5,1-0.6,1.5
		L8.8,30.3z M15.8,29.1c1.6,0,2.8,1.3,2.8,2.9c0,1.6-1.3,2.8-2.9,2.8c-1.6,0-2.8-1.3-2.8-2.9C13,30.3,14.2,29.1,15.8,29.1L15.8,29.1
		z M15.8,29.1"/>
</g>
</svg>
