<?xml version="1.0" encoding="utf-8"?>
<!-- Generator: Adobe Illustrator 22.1.0, SVG Export Plug-In . SVG Version: 6.00 Build 0)  -->
<svg version="1.1" id="Isolation_Mode" xmlns="http://www.w3.org/2000/svg" xmlns:xlink="http://www.w3.org/1999/xlink" x="0px"
	 y="0px" viewBox="0 0 435 445" style="enable-background:new 0 0 435 445;" xml:space="preserve">
<style type="text/css">
	path{fill:#f8f8f8;}
</style>	 
<g>
	<path d="M127.5,170.3c-0.1,0-0.1,0-0.2,0l-17.9-9.9c-0.1-0.1-0.2-0.2-0.2-0.4c0-0.1,0.1-0.3,0.2-0.3l22.6-9.3
		c0.1-0.1,0.3,0,0.4,0.1c0.1,0.1,0.2,0.2,0.1,0.4l-4.8,19.2c0,0.1-0.1,0.2-0.2,0.3C127.6,170.2,127.5,170.3,127.5,170.3z M110.5,160
		l16.7,9.3l4.5-18L110.5,160z"/>
	<path d="M109.6,160.3c-0.1,0-0.2-0.1-0.3-0.2c-0.1-0.1-0.1-0.3,0-0.5l27.4-29.8c0.1-0.1,0.3-0.2,0.5-0.1c0.2,0.1,0.2,0.3,0.2,0.4
		l-4.7,20.6c0,0.1-0.1,0.2-0.2,0.3l-22.6,9.3C109.7,160.3,109.7,160.3,109.6,160.3z M136.3,131.4L111.1,159l20.9-8.6L136.3,131.4z"
		/>
	<path d="M132.3,151.1c0,0-0.1,0-0.1,0c-0.2-0.1-0.3-0.3-0.2-0.4l4.7-20.6c0-0.1,0.1-0.1,0.1-0.2l24.2-23.6c0.1-0.1,0.4-0.1,0.5,0
		c0.1,0.1,0.2,0.3,0.1,0.5l-28.9,44.1C132.5,151,132.4,151.1,132.3,151.1z M137.4,130.3l-4.2,18.4l25.9-39.5L137.4,130.3z"/>
	<path d="M132.3,151.1c-0.1,0-0.2,0-0.3-0.1c-0.1-0.1-0.1-0.3,0-0.4l28.9-44.1c0.1-0.1,0.2-0.2,0.4-0.2l59.6,9.1
		c0.2,0,0.3,0.2,0.3,0.3c0,0.2-0.1,0.3-0.2,0.4l-88.6,35C132.4,151,132.3,151.1,132.3,151.1z M161.4,107l-28.2,42.9l86.2-34
		L161.4,107z"/>
	<path d="M220.9,116.1C220.8,116.1,220.8,116.1,220.9,116.1l-59.7-9.2c-0.1,0-0.2-0.1-0.3-0.2c-0.1-0.1-0.1-0.2,0-0.3l6.1-20.6
		c0-0.1,0.1-0.2,0.2-0.2c0.1,0,0.2,0,0.3,0l53.5,29.7c0.2,0,0.3,0.2,0.3,0.4C221.3,115.9,221.1,116.1,220.9,116.1L220.9,116.1z
		 M161.7,106.2l57.1,8.8l-51.3-28.5L161.7,106.2z"/>
	<path d="M82,204.4c-0.1,0-0.2,0-0.3-0.1c-0.1-0.1-0.2-0.3-0.1-0.5l27.6-44.1c0.1-0.2,0.3-0.2,0.5-0.1l17.9,9.9
		c0.1,0.1,0.2,0.2,0.2,0.3c0,0.1,0,0.2-0.1,0.3l-45.4,34.1C82.2,204.4,82.1,204.4,82,204.4z M109.8,160.5l-26.3,42l43.4-32.6
		L109.8,160.5z"/>
	<path d="M110.4,247.6c-0.1,0-0.2-0.1-0.3-0.2l-28.4-43.2c-0.1-0.2-0.1-0.4,0.1-0.5l45.4-34.1c0.1-0.1,0.3-0.1,0.4,0
		c0.1,0.1,0.2,0.2,0.2,0.4l-17.1,77.4C110.7,247.5,110.6,247.6,110.4,247.6C110.5,247.6,110.4,247.6,110.4,247.6z M82.6,204.1
		l27.7,42.2l16.7-75.5L82.6,204.1z"/>
	<path d="M110.4,247.6c-0.1,0-0.2,0-0.2-0.1c-0.1-0.1-0.2-0.2-0.1-0.4l17.1-77.4c0-0.2,0.2-0.3,0.4-0.3l112.1,3.8
		c0.2,0,0.3,0.1,0.4,0.3c0,0.2,0,0.3-0.2,0.4l-129.2,73.6C110.5,247.6,110.5,247.6,110.4,247.6z M127.8,170.3L111,246.5L238.2,174
		L127.8,170.3z"/>
	<path d="M239.6,174C239.6,174,239.6,174,239.6,174C239.6,174,239.6,174,239.6,174l-112.1-3.8c-0.1,0-0.2-0.1-0.3-0.1
		c-0.1-0.1-0.1-0.2-0.1-0.3l4.8-19.2c0-0.2,0.2-0.3,0.4-0.3l107.3,23c0.2,0,0.4,0.2,0.4,0.4C240,173.9,239.8,174,239.6,174z
		 M128,169.5l107.4,3.6l-102.8-22L128,169.5z"/>
	<path d="M239.6,174C239.6,174,239.5,174,239.6,174l-107.4-23c-0.2,0-0.3-0.2-0.3-0.3c0-0.2,0.1-0.3,0.2-0.4l88.6-35
		c0.1,0,0.2,0,0.3,0c0.1,0,0.2,0.1,0.2,0.2l18.7,57.8c0,0.1,0.1,0.1,0.1,0.2C240,173.9,239.8,174,239.6,174
		C239.6,174,239.6,174,239.6,174z M133.6,150.6L239,173.1l-18.4-56.9L133.6,150.6z"/>
	<path d="M239.6,174c-0.1,0-0.2-0.1-0.3-0.2c-0.1-0.1-0.1-0.2,0-0.4l25-62.2c0.1-0.2,0.2-0.2,0.4-0.2c0.2,0,0.3,0.1,0.3,0.3
		l14.1,60.2c0,0.1,0,0.2-0.1,0.3c-0.1,0.1-0.2,0.1-0.3,0.1L239.6,174C239.6,174,239.6,174,239.6,174z M264.5,112.7l-24.3,60.6
		l38-1.9L264.5,112.7z"/>
	<path d="M239.6,174C239.6,174,239.6,174,239.6,174c-0.2,0-0.3-0.1-0.4-0.3l-18.7-57.9c0-0.1,0-0.2,0-0.3c0.1-0.1,0.2-0.2,0.3-0.2
		l43.7-4.3c0.1,0,0.3,0,0.3,0.1c0.1,0.1,0.1,0.2,0,0.4l-25,62.2C239.9,173.9,239.7,174,239.6,174z M221.4,116l18.3,56.5l24.4-60.7
		L221.4,116z"/>
	<path d="M110.4,247.6c-0.2,0-0.3-0.1-0.4-0.3c-0.1-0.2,0-0.4,0.2-0.4l129.2-73.6c0.1-0.1,0.3-0.1,0.4,0l61.7,51.7
		c0.1,0.1,0.2,0.3,0.1,0.4c0,0.1-0.2,0.2-0.3,0.3L110.4,247.6C110.4,247.6,110.4,247.6,110.4,247.6z M239.5,174.1l-127.3,72.6
		l188.2-21.6L239.5,174.1z"/>
	<path d="M301.3,225.7c-0.1,0-0.2,0-0.2-0.1l-61.7-51.7c-0.1-0.1-0.2-0.3-0.1-0.4c0-0.1,0.2-0.2,0.3-0.3l39.1-2
		c0.1,0,0.3,0.1,0.4,0.2l22.6,53.6c0.1,0.1,0.1,0.2,0.1,0.2C301.7,225.6,301.5,225.7,301.3,225.7L301.3,225.7z M240.6,174l59.8,50.1
		l-21.9-52L240.6,174z"/>
	<path d="M324.9,226.5C324.9,226.5,324.9,226.5,324.9,226.5l-23.6-0.8c-0.1,0-0.3-0.1-0.3-0.2l-22.6-53.7c-0.1-0.2,0-0.4,0.1-0.5
		c0.2-0.1,0.4-0.1,0.5,0.1l46.3,54.5c0.1,0.1,0.1,0.3,0.1,0.4C325.2,226.5,325,226.5,324.9,226.5z M301.5,225l22.5,0.8l-44.1-52
		L301.5,225z"/>
	<path d="M109.6,160.3c-0.1,0-0.1,0-0.2-0.1c-0.2-0.1-0.2-0.3-0.1-0.5l18.8-45.6c0.1-0.1,0.2-0.2,0.3-0.2c0.1,0,0.3,0.1,0.3,0.2
		l8.6,15.8c0.1,0.1,0.1,0.3-0.1,0.4l-27.4,29.8C109.8,160.3,109.7,160.3,109.6,160.3z M128.5,115.2l-17.7,43l25.8-28.1L128.5,115.2z
		"/>
	<path d="M137,130.5C137,130.5,137,130.5,137,130.5c-0.2,0-0.3-0.1-0.3-0.2l-8.6-15.8c-0.1-0.1-0.1-0.2,0-0.3c0-0.1,0.1-0.2,0.3-0.2
		l32.8-7.8c0.2,0,0.3,0,0.4,0.2c0.1,0.1,0.1,0.3-0.1,0.5l-24.2,23.6C137.2,130.5,137.1,130.5,137,130.5z M129,114.6l8.1,14.9
		l22.9-22.3L129,114.6z"/>
	<path d="M128.4,114.7c-0.1,0-0.3-0.1-0.3-0.2c-0.1-0.2,0-0.4,0.1-0.5l38.9-28.4c0.1-0.1,0.3-0.1,0.4,0c0.1,0.1,0.2,0.3,0.1,0.4
		l-6.1,20.6c0,0.1-0.1,0.2-0.3,0.3L128.4,114.7C128.5,114.7,128.4,114.7,128.4,114.7z M166.6,86.9l-36.5,26.6l30.8-7.3L166.6,86.9z"
		/>
	<path d="M220.9,116.1c-0.1,0-0.1,0-0.2,0l-53.6-29.8c-0.1-0.1-0.2-0.2-0.2-0.3c0-0.1,0.1-0.3,0.2-0.3l51.8-25.7
		c0.1-0.1,0.2-0.1,0.4,0c0.1,0.1,0.2,0.2,0.2,0.3l1.8,55.4c0,0.1-0.1,0.3-0.2,0.3C221,116.1,220.9,116.1,220.9,116.1z M168.1,86
		l52.4,29.1l-1.7-54.2L168.1,86z"/>
	<path d="M167.3,86.3c-0.1,0-0.2,0-0.2-0.1c-0.1-0.1-0.2-0.2-0.1-0.4l6.4-32.1c0-0.2,0.2-0.3,0.4-0.3l45.4,6.5
		c0.2,0,0.3,0.1,0.3,0.3c0,0.2-0.1,0.3-0.2,0.4l-51.8,25.7C167.4,86.3,167.4,86.3,167.3,86.3z M174,54.2l-6.2,31l50-24.8L174,54.2z"
		/>
	<path d="M220.9,116.1c-0.1,0-0.2,0-0.2-0.1c-0.1-0.1-0.1-0.2-0.1-0.3l-1.8-55.4c0-0.2,0.1-0.3,0.2-0.4c0.1-0.1,0.3,0,0.4,0.1
		l45.5,51.2c0.1,0.1,0.1,0.3,0.1,0.4c-0.1,0.1-0.2,0.2-0.3,0.2L220.9,116.1C220.9,116.1,220.9,116.1,220.9,116.1z M219.5,61.3
		l1.7,54l42.6-4.1L219.5,61.3z"/>
	<path d="M219.1,60.7C219.1,60.7,219.1,60.7,219.1,60.7l-45.5-6.5c-0.2,0-0.3-0.2-0.3-0.4l0.4-8.8c0-0.1,0.1-0.2,0.2-0.3
		c0.1-0.1,0.2-0.1,0.3,0l45,15.3c0.2,0,0.3,0.2,0.3,0.4C219.5,60.5,219.3,60.7,219.1,60.7C219.1,60.7,219.1,60.7,219.1,60.7z
		 M174.1,53.5l41.1,5.9l-40.7-13.8L174.1,53.5z"/>
	<path d="M219.1,60.7c0,0-0.1,0-0.1,0l-45-15.3c-0.1,0-0.2-0.2-0.3-0.3c0-0.2,0.1-0.3,0.2-0.4L208.5,28c0.1,0,0.2,0,0.3,0
		c0.1,0,0.2,0.1,0.2,0.2l10.4,31.9c0,0.1,0.1,0.1,0.1,0.2C219.5,60.5,219.3,60.7,219.1,60.7C219.1,60.7,219.1,60.7,219.1,60.7z
		 M175.1,44.9l43.4,14.8l-10.1-30.8L175.1,44.9z"/>
	<path d="M264.6,111.8c-0.1,0-0.2,0-0.3-0.1l-45.5-51.2c-0.1-0.1-0.1-0.2-0.1-0.3c0-0.1,0.1-0.2,0.1-0.3l73-59.9
		c0.1-0.1,0.3-0.1,0.4,0c0.1,0.1,0.2,0.3,0.2,0.4l-27.5,111.1C264.9,111.7,264.8,111.8,264.6,111.8
		C264.6,111.8,264.6,111.8,264.6,111.8z M219.6,60.3l44.7,50.3l27-109.3L219.6,60.3z"/>
	<path d="M219.1,60.7c0,0-0.1,0-0.1,0c-0.1,0-0.2-0.1-0.3-0.2l-10.5-32c-0.1-0.2,0-0.4,0.2-0.5L291.9,0c0.2-0.1,0.4,0,0.4,0.2
		c0.1,0.2,0,0.4-0.1,0.5l-73,59.9C219.3,60.6,219.2,60.7,219.1,60.7z M209.1,28.6l10.2,31.1l70.9-58.3L209.1,28.6z"/>
	<path d="M300.6,332.7c-0.1,0-0.1,0-0.2,0l-190.2-85.1c-0.2-0.1-0.2-0.2-0.2-0.4c0-0.2,0.2-0.3,0.3-0.3L301.2,225
		c0.1,0,0.2,0,0.3,0.1c0.1,0.1,0.1,0.2,0.1,0.3l-0.6,107c0,0.1-0.1,0.2-0.2,0.3C300.8,332.7,300.7,332.7,300.6,332.7z M111.8,247.5
		l188.4,84.3l0.6-106L111.8,247.5z"/>
	<path d="M110.4,247.6C110.4,247.6,110.4,247.6,110.4,247.6l-11.6-2.8c-0.1,0-0.2-0.1-0.3-0.2l-16.8-40.4c-0.1-0.2,0-0.4,0.2-0.5
		c0.2-0.1,0.4,0,0.5,0.1l28.4,43.2c0.1,0.1,0.1,0.3,0,0.4C110.6,247.6,110.5,247.6,110.4,247.6z M99.1,244.1l10.4,2.5l-25.6-39.1
		L99.1,244.1z"/>
	<path d="M371,107.8c-0.1,0-0.2-0.1-0.3-0.2l-79-107c-0.1-0.1-0.1-0.3,0-0.5c0.1-0.1,0.3-0.2,0.5-0.1l103.8,61.7
		c0.2,0.1,0.2,0.3,0.1,0.5l-24.9,45.3C371.3,107.7,371.2,107.7,371,107.8C371,107.8,371,107.8,371,107.8z M293.4,1.7l77.5,105
		l24.4-44.4L293.4,1.7z"/>
	<path d="M264.6,111.8c-0.1,0-0.2-0.1-0.3-0.1c-0.1-0.1-0.1-0.2-0.1-0.3L291.7,0.3c0-0.1,0.1-0.3,0.3-0.3c0.1,0,0.3,0,0.4,0.1
		l79,107c0.1,0.1,0.1,0.3,0,0.4c-0.1,0.1-0.2,0.2-0.3,0.2L264.6,111.8C264.6,111.8,264.6,111.8,264.6,111.8z M292.2,1.2l-27.2,109.8
		l105.2-4L292.2,1.2z"/>
	<path d="M311.2,347.7c-0.1,0-0.2-0.1-0.3-0.2l-10.6-15c-0.1-0.1-0.1-0.3,0-0.4c0.1-0.1,0.3-0.2,0.4-0.1l10.9,3.5
		c0.2,0.1,0.3,0.2,0.3,0.4l-0.3,11.5c0,0.2-0.1,0.3-0.3,0.3C311.3,347.7,311.3,347.7,311.2,347.7z M301.6,333l9.3,13.2l0.3-10.1
		L301.6,333z"/>
	<path d="M311.5,336.2c0,0-0.1,0-0.1,0l-10.9-3.5c-0.2-0.1-0.3-0.2-0.3-0.4l14.9-83.3c0-0.2,0.2-0.3,0.4-0.3c0.2,0,0.3,0.2,0.3,0.4
		l-4,86.9c0,0.1-0.1,0.2-0.2,0.3C311.7,336.2,311.6,336.2,311.5,336.2z M301.1,332.1l10.1,3.3l3.7-80.6L301.1,332.1z"/>
	<path d="M300.6,332.7C300.6,332.7,300.6,332.7,300.6,332.7c-0.2,0-0.4-0.2-0.4-0.4l0.6-107c0-0.2,0.1-0.3,0.3-0.4
		c0.2,0,0.3,0,0.4,0.2l14.2,23.6c0,0.1,0.1,0.2,0,0.3L301,332.4C301,332.6,300.8,332.7,300.6,332.7z M301.6,226.7L301,327.9
		l14.1-78.9L301.6,226.7z"/>
	<path d="M315.5,249.4c-0.1,0-0.3-0.1-0.3-0.2l-14.2-23.6c-0.1-0.1-0.1-0.3,0-0.4c0.1-0.1,0.2-0.2,0.3-0.2l23.6,0.8
		c0.1,0,0.2,0.1,0.3,0.2c0.1,0.1,0.1,0.2,0,0.3l-9.4,22.8C315.8,249.3,315.7,249.4,315.5,249.4C315.5,249.4,315.5,249.4,315.5,249.4
		z M301.9,225.7l13.5,22.4l8.9-21.6L301.9,225.7z"/>
	<path d="M394.2,135.7c-0.1,0-0.2,0-0.3-0.1l-23.2-27.9c-0.1-0.1-0.1-0.2-0.1-0.3c0-0.1,0.1-0.2,0.2-0.3L425,73.2
		c0.1-0.1,0.3-0.1,0.5,0c0.1,0.1,0.2,0.3,0.1,0.4l-31.1,61.8C394.4,135.6,394.3,135.7,394.2,135.7
		C394.2,135.7,394.2,135.7,394.2,135.7z M371.6,107.5l22.5,27.2l30.2-60.1L371.6,107.5z"/>
	<path d="M371,107.8c-0.1,0-0.2,0-0.3-0.1c-0.1-0.1-0.2-0.3-0.1-0.5l24.9-45.3c0.1-0.2,0.3-0.2,0.5-0.2l29.4,11.4
		c0.1,0.1,0.2,0.2,0.2,0.3c0,0.1-0.1,0.3-0.2,0.4l-54.2,33.9C371.1,107.7,371.1,107.8,371,107.8z M396,62.6l-24,43.7l52.4-32.7
		L396,62.6z"/>
	<path d="M340.5,145.2c-0.1,0-0.3-0.1-0.3-0.2c-0.1-0.1-0.1-0.3,0-0.4l30.5-37.4c0.1-0.1,0.2-0.1,0.3-0.1h0c0.1,0,0.2,0,0.3,0.1
		l23.2,27.9c0.1,0.1,0.1,0.2,0.1,0.4c0,0.1-0.2,0.2-0.3,0.2L340.5,145.2C340.5,145.2,340.5,145.2,340.5,145.2z M371,108l-29.6,36.3
		l52-9.2L371,108z"/>
	<path d="M324.9,226.5c-0.1,0-0.2,0-0.3-0.1l-46.3-54.5c-0.1-0.1-0.1-0.2-0.1-0.3c0-0.1,0.1-0.2,0.2-0.3l61.9-26.8
		c0.1-0.1,0.3,0,0.4,0.1c0.1,0.1,0.2,0.2,0.1,0.4l-15.6,81.4C325.2,226.4,325.1,226.5,324.9,226.5
		C325,226.5,324.9,226.5,324.9,226.5z M279.2,171.8l45.4,53.5l15.3-79.9L279.2,171.8z"/>
	<path d="M278.6,172c-0.1,0-0.1,0-0.2,0c-0.1,0-0.2-0.1-0.2-0.3l-14.1-60.2c0-0.1,0-0.3,0.1-0.4c0.1-0.1,0.3-0.1,0.4-0.1l75.9,33.4
		c0.1,0.1,0.2,0.2,0.2,0.3c0,0.1-0.1,0.3-0.2,0.3L278.8,172C278.7,172,278.7,172,278.6,172z M265.1,112.1l13.8,59l60.7-26.3
		L265.1,112.1z"/>
	<path d="M340.5,145.2c-0.1,0-0.1,0-0.2,0l-75.9-33.4c-0.2-0.1-0.3-0.2-0.2-0.4c0-0.2,0.2-0.3,0.4-0.3L371,107
		c0.2,0,0.3,0.1,0.4,0.2c0.1,0.1,0,0.3,0,0.4l-30.5,37.4C340.7,145.1,340.6,145.2,340.5,145.2z M266.2,111.8l74.2,32.6l29.8-36.6
		L266.2,111.8z"/>
	<path d="M286.1,429.4c-0.1,0-0.2,0-0.3-0.1l-22-24.9c-0.1-0.1-0.1-0.3-0.1-0.4c0.1-0.1,0.2-0.2,0.3-0.2l26.7-2.5
		c0.1,0,0.2,0,0.3,0.1c0.1,0.1,0.1,0.2,0.1,0.3l-4.6,27.4c0,0.1-0.1,0.3-0.3,0.3C286.2,429.4,286.1,429.4,286.1,429.4z M264.8,404.4
		l21,23.7l4.4-26.1L264.8,404.4z"/>
	<path d="M286.1,429.4c0,0-0.1,0-0.1,0l-50.4-21.7c-0.2-0.1-0.2-0.2-0.2-0.4c0-0.2,0.2-0.3,0.3-0.3l28.4-3.2c0.1,0,0.2,0,0.3,0.1
		l22,24.9c0.1,0.1,0.1,0.3,0,0.5C286.3,429.3,286.2,429.4,286.1,429.4z M237.2,407.5l47.5,20.5l-20.8-23.5L237.2,407.5z"/>
	<path d="M235.7,407.7c-0.1,0-0.1,0-0.2,0l-41-20.5c-0.2-0.1-0.3-0.3-0.2-0.5c0.1-0.2,0.3-0.3,0.4-0.2l69.3,17.3
		c0.2,0,0.3,0.2,0.3,0.4c0,0.2-0.2,0.3-0.3,0.3L235.7,407.7C235.7,407.7,235.7,407.7,235.7,407.7z M198,388l37.8,18.9l26.2-2.9
		L198,388z"/>
	<path d="M264.1,404.5C264,404.5,264,404.5,264.1,404.5l-69.4-17.3c-0.1,0-0.3-0.2-0.3-0.3l-15.2-80.7c0-0.2,0.1-0.3,0.2-0.4
		c0.2-0.1,0.3,0,0.4,0.1l84.5,98c0.1,0.1,0.1,0.3,0,0.4C264.3,404.4,264.2,404.5,264.1,404.5z M195.1,386.5l68,17l-82.8-96
		L195.1,386.5z"/>
	<path d="M165.7,388.7c-0.1,0-0.2,0-0.3-0.1c-0.1-0.1-0.1-0.2-0.1-0.3l13.9-82.2c0-0.2,0.2-0.3,0.4-0.3c0.2,0,0.3,0.1,0.4,0.3
		l15.2,80.7c0,0.1,0,0.2-0.1,0.3c-0.1,0.1-0.2,0.1-0.3,0.1L165.7,388.7C165.7,388.7,165.7,388.7,165.7,388.7z M179.6,308.3
		l-13.5,79.6l28.2-1.4L179.6,308.3z"/>
	<path d="M354.7,445C354.7,445,354.7,445,354.7,445L286,429.4c-0.2,0-0.3-0.2-0.3-0.4l4.6-27.4c0-0.1,0.1-0.2,0.2-0.3
		c0.1,0,0.3,0,0.4,0l63.9,43c0.1,0.1,0.2,0.2,0.2,0.4C355.1,444.8,355,445,354.7,445C354.7,445,354.7,445,354.7,445z M286.5,428.7
		l66.3,15.1L291,402.3L286.5,428.7z"/>
	<path d="M354.7,445c-0.1,0-0.1,0-0.2-0.1l-64-43c-0.1-0.1-0.2-0.2-0.2-0.4c0-0.2,0.2-0.3,0.3-0.3l106.4-12.9c0.2,0,0.3,0.1,0.4,0.2
		c0.1,0.1,0.1,0.3,0,0.4L355,444.9C355,444.9,354.8,445,354.7,445z M291.8,401.9l62.9,42.2l41.7-54.9L291.8,401.9z"/>
	<path d="M290.7,402c-0.2,0-0.3-0.1-0.4-0.3l-45.6-145.6c0-0.2,0-0.3,0.2-0.4c0.1-0.1,0.3-0.1,0.5,0l152,132.7
		c0.1,0.1,0.2,0.3,0.1,0.4c0,0.1-0.2,0.2-0.3,0.3L290.7,402C290.8,402,290.7,402,290.7,402z M245.9,257.2l45.1,144l105.3-12.7
		L245.9,257.2z"/>
	<path d="M264.1,404.5c-0.2,0-0.3-0.1-0.4-0.3l-18.9-148.1c0-0.2,0.1-0.4,0.3-0.4c0.2,0,0.4,0.1,0.4,0.3l45.6,145.6
		c0,0.1,0,0.2,0,0.3c-0.1,0.1-0.2,0.2-0.3,0.2L264.1,404.5C264.1,404.5,264.1,404.5,264.1,404.5z M246,260.2l18.4,143.5l25.8-2.4
		L246,260.2z"/>
	<path d="M264.1,404.5c-0.1,0-0.2,0-0.3-0.1l-84.5-98c-0.1-0.1-0.1-0.2-0.1-0.3c0-0.1,0.1-0.2,0.1-0.3l65.5-50.1
		c0.1-0.1,0.2-0.1,0.4,0c0.1,0.1,0.2,0.2,0.2,0.3l18.9,148c0,0,0,0.1,0,0.2C264.5,404.3,264.3,404.5,264.1,404.5
		C264.1,404.5,264.1,404.5,264.1,404.5z M180.1,306.2l83.4,96.8l-18.7-146.2L180.1,306.2z"/>
	<path d="M245.1,256.4C245.1,256.4,245.1,256.4,245.1,256.4l-90.6-4.1c-0.2,0-0.3-0.1-0.3-0.3c0-0.2,0-0.3,0.2-0.4l70.5-45.1
		c0.1-0.1,0.2-0.1,0.3,0c0.1,0,0.2,0.1,0.2,0.2l20.1,49.2c0,0.1,0,0.3,0,0.4C245.4,256.4,245.2,256.4,245.1,256.4z M155.7,251.6
		l88.9,4l-19.7-48.3L155.7,251.6z"/>
	<path d="M179.6,306.5C179.6,306.5,179.5,306.5,179.6,306.5c-0.2,0-0.3-0.1-0.3-0.2l-25.1-54.2c-0.1-0.1,0-0.3,0-0.4
		c0.1-0.1,0.2-0.2,0.3-0.2l90.6,4.1c0.2,0,0.3,0.1,0.3,0.3c0,0.2,0,0.3-0.1,0.4l-65.5,50.1C179.7,306.5,179.7,306.5,179.6,306.5z
		 M155.1,252.3l24.6,53.2l64.3-49.2L155.1,252.3z"/>
	<path d="M397.2,389.1C397.2,389.1,397.2,389.1,397.2,389.1c-0.1,0-0.2,0-0.3-0.1l-152-132.7c-0.1-0.1-0.2-0.3-0.1-0.4L283,153.5
		c0.1-0.1,0.2-0.2,0.3-0.2c0.1,0,0.3,0.1,0.4,0.2l113.8,235.1c0.1,0.1,0.1,0.2,0.1,0.3C397.6,389,397.4,389.1,397.2,389.1z
		 M245.6,255.9L396,387.3L283.4,154.5L245.6,255.9z"/>
	<path d="M245.1,256.4c-0.2,0-0.3-0.1-0.3-0.2l-20.1-49.2c-0.1-0.1,0-0.3,0.1-0.4l58.3-53.2c0.1-0.1,0.3-0.1,0.5,0
		c0.1,0.1,0.2,0.3,0.1,0.4l-38.2,102.4C245.4,256.3,245.3,256.4,245.1,256.4L245.1,256.4z M225.5,206.9l19.6,48.1l37.4-100.1
		L225.5,206.9z"/>
	<path d="M225,207.2c-0.1,0-0.2,0-0.2-0.1c-0.1-0.1-0.2-0.3-0.1-0.5l48.8-83.9c0.1-0.1,0.2-0.2,0.4-0.2c0.1,0,0.3,0.1,0.3,0.3
		l9.6,30.7c0,0.1,0,0.3-0.1,0.4l-58.3,53.2C225.2,207.1,225.1,207.2,225,207.2z M273.7,123.8l-47.1,81.1l56.4-51.4L273.7,123.8z"/>
	<path d="M286.1,429.4C286.1,429.4,286.1,429.4,286.1,429.4l-66.7-3.6c-0.1,0-0.3-0.1-0.3-0.2c-0.1-0.1,0-0.3,0.1-0.4l16.3-18.2
		c0.1-0.1,0.3-0.2,0.4-0.1l50.4,21.7c0.2,0.1,0.3,0.3,0.2,0.4C286.4,429.3,286.3,429.4,286.1,429.4z M220.2,425.1l63.8,3.4
		l-48.2-20.8L220.2,425.1z"/>
	<path d="M219.4,425.8C219.4,425.8,219.4,425.8,219.4,425.8c-0.1,0-0.3-0.1-0.3-0.2L194.4,387c-0.1-0.1-0.1-0.3,0-0.5
		c0.1-0.1,0.3-0.2,0.4-0.1l41,20.5c0.1,0.1,0.2,0.2,0.2,0.3c0,0.1,0,0.2-0.1,0.3l-16.3,18.1C219.6,425.8,219.5,425.8,219.4,425.8z
		 M195.8,387.8l23.7,37.1l15.6-17.4L195.8,387.8z"/>
	<path d="M219.4,425.8c-0.1,0-0.1,0-0.2-0.1l-53.7-37.2c-0.1-0.1-0.2-0.3-0.1-0.4c0-0.2,0.2-0.3,0.3-0.3l29.1-1.5
		c0.1,0,0.3,0.1,0.3,0.2l24.7,38.6c0.1,0.2,0.1,0.3-0.1,0.5C219.6,425.8,219.5,425.8,219.4,425.8z M166.8,388.6l51.3,35.5
		l-23.5-36.9L166.8,388.6z"/>
	<path d="M165.7,388.7c-0.1,0-0.2,0-0.3-0.1l-56-55c-0.1-0.1-0.1-0.2-0.1-0.3c0-0.1,0.1-0.2,0.2-0.3l69.9-27.2c0.1,0,0.3,0,0.4,0.1
		c0.1,0.1,0.2,0.2,0.1,0.4l-13.9,82.2c0,0.1-0.1,0.3-0.3,0.3C165.8,388.6,165.7,388.7,165.7,388.7z M110.3,333.5l55.1,54l13.7-80.8
		L110.3,333.5z"/>
	<path d="M121.8,394.9c-0.2,0-0.3-0.1-0.4-0.3l-12.1-61.2c0-0.2,0-0.3,0.2-0.4c0.1-0.1,0.3-0.1,0.4,0.1l56,55
		c0.1,0.1,0.1,0.2,0.1,0.4c0,0.1-0.2,0.2-0.3,0.3L121.8,394.9C121.8,394.9,121.8,394.9,121.8,394.9z M110.3,334.4l11.8,59.7
		l42.8-6.1L110.3,334.4z"/>
	<path d="M109.6,333.7c-0.1,0-0.2,0-0.3-0.1c-0.1-0.1-0.1-0.3,0-0.4l44.8-81.4c0.1-0.1,0.2-0.2,0.3-0.2c0.1,0,0.3,0.1,0.3,0.2
		l25.1,54.2c0,0.1,0,0.2,0,0.3c0,0.1-0.1,0.2-0.2,0.2l-69.9,27.2C109.7,333.7,109.7,333.7,109.6,333.7z M154.5,252.8l-44,79.8
		l68.6-26.7L154.5,252.8z"/>
	<path d="M110.3,398.4c-0.1,0-0.2,0-0.2-0.1c-0.1-0.1-0.2-0.2-0.2-0.3l-0.7-64.7c0-0.2,0.1-0.4,0.3-0.4c0.2,0,0.4,0.1,0.4,0.3
		l12.1,61.2c0,0.2-0.1,0.4-0.3,0.4l-11.4,3.5C110.4,398.4,110.4,398.4,110.3,398.4z M110.1,337.4l0.7,60.1l10.6-3.2L110.1,337.4z"/>
	<path d="M110.3,398.4c-0.1,0-0.2,0-0.3-0.1l-36.8-36.9c-0.1-0.1-0.1-0.2-0.1-0.3c0-0.1,0.1-0.2,0.1-0.3l36.1-27.8
		c0.1-0.1,0.3-0.1,0.4,0c0.1,0.1,0.2,0.2,0.2,0.3l0.7,64.5c0,0,0,0.1,0,0.1C110.7,398.2,110.6,398.4,110.3,398.4
		C110.4,398.4,110.3,398.4,110.3,398.4z M74.1,361.2l35.8,35.9l-0.7-63L74.1,361.2z"/>
	<path d="M109.6,333.7c-0.1,0-0.1,0-0.2-0.1L0.2,266.9C0,266.8,0,266.7,0,266.5c0-0.2,0.2-0.3,0.3-0.3l154.1-14.7
		c0.1,0,0.3,0.1,0.3,0.2c0.1,0.1,0.1,0.3,0,0.4L110,333.5C109.9,333.6,109.8,333.7,109.6,333.7C109.7,333.7,109.7,333.7,109.6,333.7
		z M1.5,266.9l108,65.9l44.3-80.4L1.5,266.9z"/>
	<path d="M73.6,361.5c-0.1,0-0.2-0.1-0.3-0.1L0.1,266.8c-0.1-0.1-0.1-0.3,0-0.5c0.1-0.1,0.3-0.2,0.5-0.1L109.8,333
		c0.1,0.1,0.2,0.2,0.2,0.3c0,0.1,0,0.2-0.1,0.3l-36.1,27.8C73.7,361.5,73.6,361.5,73.6,361.5z M1.9,268l71.7,92.6l35.4-27.2L1.9,268
		z"/>
	<path d="M397.2,389.1c-0.1,0-0.3-0.1-0.3-0.2L283,153.8c0-0.1,0-0.2,0-0.3s0.1-0.2,0.2-0.2l136.8-47.3c0.1,0,0.3,0,0.4,0.1
		c0.1,0.1,0.2,0.2,0.1,0.3l-23,282.5C397.5,389,397.4,389.1,397.2,389.1C397.2,389.1,397.2,389.1,397.2,389.1z M283.9,153.8
		l113,233.6l22.9-280.5L283.9,153.8z"/>
	<path d="M354.7,445c-0.1,0-0.2,0-0.3-0.1c-0.1-0.1-0.2-0.3,0-0.5l42.4-55.9c0.1-0.1,0.3-0.2,0.4-0.1c0.1,0,0.3,0.2,0.3,0.3
		l1.6,16.1c0,0.1,0,0.2-0.1,0.3L355,444.9C354.9,445,354.8,445,354.7,445z M396.9,389.8l-39.4,51.9l40.9-37L396.9,389.8z"/>
	<path d="M0.4,267c0,0-0.1,0-0.1,0c-0.2-0.1-0.3-0.2-0.2-0.4l32.1-161.1c0-0.2,0.2-0.3,0.4-0.3l69,11.6c0.1,0,0.2,0.1,0.3,0.2
		c0.1,0.1,0,0.3,0,0.4L0.7,266.8C0.6,266.9,0.5,267,0.4,267z M32.8,106L1.1,264.9l99.7-147.5L32.8,106z"/>
	<path d="M0.4,267c-0.1,0-0.3-0.1-0.3-0.2c-0.1-0.1-0.1-0.3,0-0.4l101.1-149.5c0.1-0.1,0.2-0.2,0.4-0.2c0.1,0,0.3,0.1,0.3,0.2
		l53.1,134.8c0,0.1,0,0.2,0,0.3c-0.1,0.1-0.2,0.2-0.3,0.2L0.4,267C0.4,267,0.4,267,0.4,267z M101.3,117.9L1.1,266.2L154,251.6
		L101.3,117.9z"/>
	<path d="M420.2,106.6c0,0-0.1,0-0.1,0c-0.2,0-0.3-0.2-0.3-0.3l-0.4-15.6c0-0.2,0.1-0.3,0.3-0.4l14.8-4.8c0.2,0,0.3,0,0.4,0.1
		c0.1,0.1,0.1,0.3,0,0.4l-14.4,20.4C420.4,106.6,420.3,106.6,420.2,106.6z M420.2,91l0.4,14.2l13.1-18.5L420.2,91z"/>
	<path d="M307.1,125c-0.2,0-0.3-0.1-0.4-0.3c0-0.2,0.1-0.4,0.3-0.4l112.6-34c0.1,0,0.2,0,0.3,0.1c0.1,0.1,0.2,0.2,0.2,0.3l0.4,15.6
		c0,0.2-0.1,0.4-0.3,0.4L307.1,125C307.2,125,307.2,125,307.1,125z M419.4,91.2l-106.7,32.2L419.8,106L419.4,91.2z"/>
	<path d="M283.4,154c-0.1,0-0.2-0.1-0.3-0.2c-0.1-0.1-0.1-0.3,0-0.5l23.8-28.9c0.1-0.1,0.1-0.1,0.2-0.1l113.1-18.4
		c0.2,0,0.4,0.1,0.4,0.3c0,0.2-0.1,0.4-0.2,0.4l-136.8,47.3C283.4,154,283.4,154,283.4,154z M307.3,125l-22.8,27.8l131.4-45.5
		L307.3,125z"/>
	<path d="M283.4,154C283.3,154,283.3,154,283.4,154c-0.2,0-0.3-0.1-0.4-0.3l-9.6-30.7c0-0.1,0-0.2,0.1-0.3c0.1-0.1,0.2-0.2,0.3-0.1
		l33.3,1.8c0.1,0,0.3,0.1,0.3,0.2c0.1,0.1,0,0.3-0.1,0.4l-23.8,28.9C283.6,153.9,283.5,154,283.4,154z M274.3,123.3l9.2,29.5
		l22.9-27.8L274.3,123.3z"/>
	<path d="M101.4,117.5c-0.1,0-0.2,0-0.2-0.1L33.5,63c-0.1-0.1-0.2-0.3-0.1-0.4c0.1-0.2,0.2-0.2,0.4-0.2l92.9,12.1
		c0.1,0,0.2,0.1,0.3,0.2c0.1,0.1,0,0.2,0,0.4l-25.2,42.3C101.7,117.4,101.6,117.5,101.4,117.5C101.5,117.5,101.5,117.5,101.4,117.5z
		 M35.1,63.3l66.3,53.3l24.7-41.4L35.1,63.3z"/>
	<path d="M101.4,117.5C101.4,117.5,101.4,117.5,101.4,117.5l-69-11.6c-0.2,0-0.3-0.2-0.3-0.4l1.3-42.8c0-0.1,0.1-0.3,0.2-0.3
		c0.1-0.1,0.3,0,0.4,0l67.6,54.3c0.1,0.1,0.2,0.2,0.2,0.3C101.8,117.3,101.7,117.5,101.4,117.5C101.4,117.5,101.4,117.5,101.4,117.5
		z M32.9,105.2l67.2,11.3l-65.9-53L32.9,105.2z"/>
	<path d="M162.9,139.8c0,0-0.1,0-0.1,0l-61.5-22.3c-0.1,0-0.2-0.1-0.2-0.2c0-0.1,0-0.2,0-0.3l25.2-42.3c0.1-0.1,0.2-0.2,0.3-0.2
		c0.1,0,0.3,0.1,0.3,0.2l36.3,64.6c0.1,0.1,0.1,0.3,0,0.4C163.1,139.8,163,139.8,162.9,139.8z M102,116.9l60.1,21.8l-35.4-63.2
		L102,116.9z"/>
	<path d="M225,207.2c-0.1,0-0.2,0-0.3-0.1l-62.1-67.4c-0.1-0.1-0.1-0.2-0.1-0.4c0-0.1,0.2-0.2,0.3-0.2l110.9-16.6
		c0.1,0,0.3,0,0.4,0.2c0.1,0.1,0.1,0.3,0,0.4L225.3,207C225.3,207.1,225.2,207.1,225,207.2C225,207.2,225,207.2,225,207.2z
		 M163.7,139.7l61.3,66.5l48.1-82.8L163.7,139.7z"/>
	<path d="M154.5,252.3c-0.1,0-0.1,0-0.2-0.1c-0.1-0.1-0.2-0.2-0.2-0.4l8.4-112.5c0-0.1,0.1-0.3,0.3-0.3c0.1,0,0.3,0,0.4,0.1
		l62.1,67.4c0.1,0.1,0.1,0.2,0.1,0.3c0,0.1-0.1,0.2-0.2,0.3l-70.5,45.1C154.6,252.3,154.6,252.3,154.5,252.3z M163.2,140.3
		l-8.3,110.9l69.5-44.5L163.2,140.3z"/>
	<path d="M154.5,252.3c-0.2,0-0.3-0.1-0.3-0.2l-53.1-134.8c-0.1-0.1,0-0.3,0.1-0.4c0.1-0.1,0.3-0.1,0.4-0.1l61.5,22.3
		c0.2,0.1,0.3,0.2,0.2,0.4L154.9,252C154.9,252.1,154.7,252.3,154.5,252.3C154.5,252.3,154.5,252.3,154.5,252.3z M102.1,117.7
		l52.2,132.5l8.3-110.6L102.1,117.7z"/>
</g>
</svg>
